/* XPM */
static char *coin_64x64[] = {
/* columns rows colors chars-per-pixel */
"46 64 158 2 ",
"   c #3C6F1C",
".  c #39781B",
"X  c #6D5D1B",
"o  c #75541B",
"O  c #73581C",
"+  c #4E6C1B",
"@  c #55671B",
"#  c #516A1B",
"$  c #48741B",
"%  c #46781B",
"&  c #4A7E1C",
"*  c #42731B",
"=  c #5A721C",
"-  c #527C1D",
";  c #66651B",
":  c #77791F",
">  c #7E7B1D",
",  c #85531B",
"<  c #AD5D1C",
"1  c #B15A1C",
"2  c #8C6B1D",
"3  c #9C691D",
"4  c #8C7C1F",
"5  c #93721D",
"6  c #A5601D",
"7  c #AB631D",
"8  c #AC681F",
"9  c #B86A1D",
"0  c #8B7E22",
"q  c #957922",
"w  c #AC6920",
"e  c #BF6621",
"r  c #BE6A21",
"t  c #B37523",
"y  c #C5611D",
"u  c #D5771F",
"i  c #EC6E1B",
"p  c #EE7513",
"a  c #ED7E12",
"s  c #EC771F",
"d  c #EB7A1D",
"f  c #F57616",
"g  c #F17E16",
"h  c #F57C1B",
"j  c #C06221",
"k  c #C96523",
"l  c #CE6D22",
"z  c #CF7022",
"x  c #E87726",
"c  c #E17825",
"v  c #EE7922",
"b  c #F17C22",
"n  c #F97C21",
"m  c #1F9C1C",
"M  c #2B8A1C",
"N  c #3B831C",
"B  c #3A8C1C",
"V  c #25941C",
"C  c #2A971C",
"Z  c #209C1C",
"A  c #2B9A1C",
"S  c #33941C",
"D  c #3C931C",
"F  c #32981D",
"G  c #3B9F1E",
"H  c #48831D",
"J  c #448E1E",
"K  c #50811D",
"L  c #5E821C",
"P  c #528F1D",
"I  c #5C8A1C",
"U  c #4B9A1D",
"Y  c #57961C",
"T  c #68881F",
"R  c #68901D",
"E  c #78A11C",
"W  c #7FB21F",
"Q  c #6AAD21",
"!  c #7FB022",
"~  c #B1931D",
"^  c #8EAF1D",
"/  c #9AAF1D",
"(  c #B9B51E",
")  c #899B21",
"_  c #AE8A20",
"`  c #80AD21",
"'  c #82B222",
"]  c #8AB223",
"[  c #91B624",
"{  c #9DB222",
"}  c #96B926",
"|  c #BAB422",
" . c #B6B923",
".. c #BCBC23",
"X. c #DC971D",
"o. c #EE8011",
"O. c #EF8F17",
"+. c #F18415",
"@. c #F18B15",
"#. c #F98B16",
"$. c #F3811C",
"%. c #FC861C",
"&. c #F28C18",
"*. c #FB8F1A",
"=. c #F39413",
"-. c #F49915",
";. c #F2931B",
":. c #FD941D",
">. c #F69C19",
",. c #FC9C1C",
"<. c #F6AA16",
"1. c #FAA21D",
"2. c #FAAC1C",
"3. c #E7BA1D",
"4. c #F7B117",
"5. c #F8B317",
"6. c #FBB41B",
"7. c #FCBC1D",
"8. c #F48121",
"9. c #FC9620",
"0. c #F89920",
"q. c #C4BE23",
"w. c #FDB320",
"e. c #FDBA21",
"r. c #CCD01F",
"t. c #F6C416",
"y. c #F9C417",
"u. c #F7CB16",
"i. c #F9CA17",
"p. c #FBC41B",
"a. c #F6C918",
"s. c #FBCA1A",
"d. c #F6C31C",
"f. c #F9D217",
"g. c #FCD51B",
"h. c #FDDB1B",
"j. c #FEE41D",
"k. c #FFEB1D",
"l. c #FFF21E",
"z. c #C9C126",
"x. c #DDDF25",
"c. c #E8CC21",
"v. c #FEC421",
"b. c #FDC920",
"n. c #FFDD20",
"m. c #DBE029",
"M. c #E7E425",
"N. c #E8E625",
"B. c #EDED25",
"V. c #FFE421",
"C. c #F3EC23",
"Z. c #FEED21",
"A. c #F3EE28",
"S. c #F5F225",
"D. c #FEF422",
"F. c #FFF922",
"G. c #F1F029",
"H. c #F8F429",
/* pixels */
"Z Z Z Z Z m Z Z Z Z Z Z Z Z Z Z Z Z Z Z Z Z Z Z Z Z Z Z Z Z Z Z Z Z Z Z Z Z Z m Z Z Z Z Z Z ",
"Z Z Z Z Z Z Z Z Z Z Z Z Z m Z Z Z Z Z Z Z Z Z Z Z Z Z Z Z Z Z m Z Z Z Z Z Z Z Z Z Z Z Z Z Z ",
"Z Z Z Z Z Z Z Z Z Z Z Z Z Z Z Z Z Z m Z Z Z Z Z Z Z Z Z Z Z Z Z Z Z Z Z Z Z Z Z Z Z Z Z Z Z ",
"Z Z Z Z Z Z Z Z Z Z Z Z Z Z Z Z Z Z Z Z Z Z m Z Z Z Z Z Z Z Z Z Z Z Z Z Z Z Z Z Z Z Z Z Z m ",
"Z Z Z Z Z Z Z Z Z Z Z Z Z Z Z Z Z Z Z Z Z Z Z Z m Z Z Z Z Z Z Z Z Z Z Z Z Z Z Z Z Z Z m Z Z ",
"Z Z Z Z Z Z Z Z Z Z Z Z Z Z Z Z Z Z Z Z m Z Z Z Z Z Z Z Z Z Z Z Z Z Z Z Z Z Z Z Z Z Z Z Z m ",
"Z Z Z Z m Z Z Z Z Z Z Z Z Z Z m Z Z Z Z Z Z Z Z Z Z Z Z Z m Z Z Z m Z Z Z Z Z Z Z Z Z Z Z Z ",
"Z Z Z Z Z Z Z Z Z Z Z Z Z Z Z Z Z Z Z Z Z Z Z Z Z Z Z Z Z Z Z Z Z Z Z Z Z m Z Z Z Z Z Z Z Z ",
"Z Z Z Z Z Z Z Z m Z Z Z Z Z Z Z Z Z Z Z Z Z Z Z Z Z Z Z Z Z Z Z Z Z m Z Z Z Z Z Z Z Z m Z Z ",
"m Z Z m Z Z m Z Z Z Z Z Z Z m Z Z Z Z Z Z Z Z Z Z Z Z Z Z Z Z Z Z Z Z Z Z m Z m Z Z Z Z Z Z ",
"Z Z Z Z Z Z Z Z Z Z Z Z Z Z Z Z Z Z Z Z m Z Z Z Z Z Z Z Z Z Z Z Z Z Z Z Z Z Z m Z Z Z Z Z Z ",
"Z Z Z Z Z m m Z Z Z Z Z Z Z Z Z Z Z Z Z Z Z Z Z Z Z Z Z Z Z Z Z Z Z Z m Z Z Z Z Z Z m Z Z Z ",
"Z Z Z Z m Z Z Z Z Z Z Z Z Z Z Z Z Z Z Z Z Z Z Z Z Z Z Z Z Z Z Z Z m m Z Z Z Z Z Z Z Z m Z Z ",
"m Z Z Z Z Z Z Z Z Z Z Z Z Z Z Z Z Z Z Z Z Z Z Z Z Z Z Z Z Z Z Z Z Z Z Z Z Z Z Z Z m Z Z Z Z ",
"m Z m Z Z Z Z Z Z Z Z Z m Z Z Z Z Z Z Z Z Z Z Z Z Z Z Z Z Z Z Z Z m Z Z m Z Z m Z Z m Z Z Z ",
"Z Z Z Z Z m Z Z Z Z Z Z Z Z Z Z Z Z Z Z Z Z Z Z Z Z Z Z Z Z Z Z Z Z Z Z Z Z Z Z Z Z Z Z m Z ",
"Z Z Z Z Z Z Z Z Z Z Z Z m Z Z Z Z Z Z Z Z Z Z Z Z Z Z Z Z Z Z Z Z Z Z Z Z Z Z Z Z Z Z Z Z Z ",
"Z Z Z Z Z m Z Z Z Z Z Z Z Z Z Z Z Z Z Z Z Z Z Z Z Z Z Z Z Z Z Z Z m Z Z Z Z Z Z Z Z Z Z Z Z ",
"Z Z Z m Z Z m Z Z Z Z Z Z Z Z Z Z Z Z Z Z Z Z Z Z Z m m Z Z Z Z Z Z Z Z Z Z Z Z Z Z Z m Z Z ",
"m Z Z Z m Z Z Z Z Z Z Z Z m Z Z Z Z V Z V Z Z V Z V Z Z Z Z Z Z Z Z Z Z Z Z m Z Z Z Z Z Z Z ",
"Z Z Z Z Z Z Z m Z Z Z Z m V D Y K T L L L L L L L L T L I P S V Z m m m Z Z Z Z Z Z Z Z Z Z ",
"Z Z Z Z Z Z Z Z Z Z Z m V Y { ....| ( ( | | | | ( ( ( ( ....) H A m m m Z Z Z Z Z Z Z Z Z Z ",
"Z Z m Z Z Z Z Z Z Z Z Z D / M.H.S.k.C.C.C.C.A.C.C.C.C.S.H.G.z.> . A m m Z Z Z Z Z Z Z Z Z Z ",
"Z Z Z Z Z m Z Z Z Z V D E r.S.F.l.l.k.k.Z.Z.k.Z.k.k.D.D.F.l.c._ X   V m Z Z Z Z Z Z Z m Z Z ",
"Z Z Z Z Z Z Z Z m Z U ^ r.C.l.l.k.h.g.g.g.g.g.g.h.h.h.n.h.h.p.X.9 , * Z Z Z Z Z Z Z Z Z Z Z ",
"Z Z Z Z Z Z Z Z m F ! M.D.F.l.k.g.a.a.a.s.a.s.p.y.i.s.s.s.s.7.>.s 9 X C Z Z Z Z Z Z Z Z Z Z ",
"Z Z Z m Z Z Z Z m F } G.F.F.j.h.s.y.y.i.u.g.g.f.g.u.a.p.p.y.6.,.8.k O M Z Z Z Z Z Z Z Z m Z ",
"Z Z Z Z m Z Z Z m F [ B.l.j.g.s.y.y.s.g.j.j.k.j.j.g.s.p.s.i.6.,.8.k o M Z Z Z Z Z Z Z Z Z Z ",
"Z Z Z Z m Z Z Z m F ] N.l.h.s.y.y.p.s.n.V.D.l.D.j.g.p.v.p.p.6.,.n y o M m Z Z Z Z Z Z Z Z Z ",
"Z Z Z Z Z Z Z Z m F ] N.l.h.y.t.s.s.n.n.j.j.k.V.g.d.6.2.7.p.7.,.h y o M m Z Z Z Z Z m Z Z Z ",
"Z Z Z Z Z Z Z Z m C ` N.l.h.i.i.h.h.n.h.g.g.g.g.d.<.=.>.2.e.7.,.b y o M m Z Z Z Z Z Z Z Z Z ",
"Z Z Z Z Z Z Z Z m C ' N.l.g.i.f.j.k.V.h.u.u.i.a.4.=.g +.1.p.7.1.$.y o M m Z Z Z Z Z Z Z Z Z ",
"Z Z Z Z Z Z Z Z Z C ! N.Z.h.s.f.j.l.k.g.u.d.p.v.2.&.p g ,.p.6.1.$.y o M m m m m m Z Z Z Z Z ",
"Z Z m Z Z Z Z Z Z C ! N.k.h.i.f.k.F.k.h.i.p.b.v.6.&.p +.1.7.7.,.$.y O M m m m m Z Z Z Z Z Z ",
"Z Z Z Z Z Z Z Z Z C ! M.l.h.y.f.j.k.V.h.p.v.v.e.2.;.a o.1.7.7.,.$.y O V m Z Z Z Z Z Z Z Z Z ",
"Z Z Z Z Z Z Z m Z C ' N.k.h.i.f.h.j.g.y.4.2.2.1.1.;.O.-.6.p.e.1.$.j ; V m Z Z Z Z Z Z Z Z Z ",
"Z Z Z Z Z Z Z Z Z A ! B.l.h.a.u.f.g.7.<.=.o.&.&.&.0.1.6.v.v.e.0.h e = A Z Z Z Z Z Z Z Z Z Z ",
"Z Z Z Z Z Z Z Z Z A W N.F.h.p.a.s.p.2.-.o.p p a &.1.e.v.s.p.w.,.$.e - Z Z Z m Z Z Z Z Z Z Z ",
"m Z Z Z m Z m m m A ! B.D.n.s.p.p.v.6.>.&.$.g O.-.6.v.b.y.6.1.*.$.r K Z Z Z Z Z Z Z Z Z Z Z ",
"Z Z Z Z m m m m m Z ' B.F.j.s.p.p.p.p.6.2.2.1.<.6.p.b.p.<.=.#.%.n t B m Z Z Z Z Z Z m Z Z Z ",
"Z Z Z Z Z Z Z m Z A Q m.Z.g.s.d.y.p.p.7.p.p.7.p.v.v.v.6.-.g f n x 0 C m Z Z Z Z Z Z Z Z Z Z ",
"Z Z Z Z Z Z Z Z Z Z G ] z.3.6.6.6.6.6.2.w.6.w.6.6.6.w.1.:.f i l q J Z Z Z Z Z Z Z Z Z Z Z Z ",
"Z Z Z Z Z Z Z Z Z Z Z S R ~ -.0.9.:.:.9.,.:.,.,.:.,.,.:.%.n l : S Z Z Z Z Z Z Z Z Z Z Z Z Z ",
"Z Z Z Z Z Z Z Z Z Z Z Z M > u v b v v d d d d d d d d s h c 0 S Z Z Z Z Z Z Z Z Z Z Z Z Z Z ",
"Z Z Z Z Z Z Z Z Z Z Z m Z & 2 8 8 7 7 < 1 1 1 1 < < 3 5 0 T G Z Z Z Z Z Z Z Z Z Z Z Z Z Z Z ",
"Z Z Z Z Z Z Z Z Z Z Z Z Z V N $ % % $ + # @ @ @ # $ N M C Z Z m Z Z Z Z Z Z Z Z Z Z Z Z Z Z ",
"Z Z Z Z Z Z Z Z Z Z Z Z Z Z Z Z Z Z Z V V Z Z V Z Z Z Z Z Z Z Z Z Z Z Z Z Z Z Z Z Z Z Z Z Z ",
"Z Z Z Z Z m Z Z Z Z Z Z Z Z Z Z Z Z m m m Z m Z Z Z Z Z Z Z Z Z Z Z Z Z Z Z Z Z Z Z Z Z Z Z ",
"Z m Z Z Z Z Z Z Z Z Z Z Z Z Z Z m Z Z Z Z Z Z Z Z Z Z Z Z Z Z Z Z Z Z Z Z Z Z Z Z Z Z Z Z Z ",
"Z Z Z Z Z Z Z Z Z Z Z Z Z Z Z Z Z Z Z Z Z Z Z Z m Z Z Z Z Z Z Z Z Z Z Z Z Z Z Z Z Z Z Z Z Z ",
"Z Z Z Z Z Z Z m Z Z m Z Z Z Z Z Z Z Z Z Z Z Z Z Z Z Z Z Z Z Z Z Z Z Z Z m Z Z Z Z Z Z Z Z Z ",
"Z Z Z Z Z Z Z Z Z Z Z Z m Z Z Z Z Z Z Z Z Z Z Z Z Z Z Z Z Z Z Z Z Z Z Z Z Z Z Z Z m Z Z Z Z ",
"Z Z Z Z Z Z Z Z Z Z m Z Z Z Z Z Z Z Z Z Z Z Z Z Z Z Z Z Z Z Z m Z m Z Z Z Z Z Z Z Z Z Z Z m ",
"Z Z Z Z Z Z Z Z Z Z Z Z Z Z Z Z Z Z Z Z Z Z Z Z Z Z Z Z Z Z Z Z Z Z Z Z Z Z Z Z Z Z Z Z Z Z ",
"Z Z Z Z Z Z Z Z Z Z Z Z Z Z Z Z Z Z Z Z Z Z Z Z Z Z m Z Z Z Z Z Z Z Z Z Z Z Z Z Z Z Z Z Z Z ",
"Z Z Z m Z Z Z Z Z Z Z Z Z Z Z Z Z Z m Z Z Z Z Z Z Z Z Z Z Z Z Z Z Z m Z m Z Z Z Z Z Z Z Z Z ",
"m Z Z Z Z Z m Z Z Z Z m Z Z Z m Z Z Z Z Z Z Z Z Z Z Z Z Z Z m Z Z Z Z m Z Z Z m Z Z Z Z Z Z ",
"Z Z Z Z Z Z Z Z Z m Z Z Z Z Z Z Z Z Z Z Z Z Z m Z Z Z Z Z Z Z Z Z m Z Z Z Z Z Z Z m Z Z Z Z ",
"Z Z Z m Z m Z Z Z Z m Z Z Z Z Z Z Z Z Z Z Z Z Z Z Z Z m Z m Z Z Z Z m Z Z Z Z Z Z Z Z Z Z Z ",
"Z Z Z Z Z Z Z m Z Z Z Z Z m Z Z m Z Z Z Z Z Z Z Z Z Z Z Z Z Z m Z Z Z Z Z m Z Z Z Z Z Z Z Z ",
"Z Z Z Z Z Z Z Z Z Z m Z Z Z Z Z Z Z Z Z Z Z Z Z Z Z Z Z Z Z Z Z Z Z m Z Z Z Z Z Z Z Z Z Z Z ",
"Z Z Z Z m Z Z Z Z Z Z Z Z m Z Z Z Z Z Z Z Z Z Z Z Z m Z m Z Z Z Z Z Z Z Z m Z Z Z Z Z Z Z Z ",
"Z Z Z Z Z Z Z Z m Z Z Z Z Z Z m Z Z Z Z Z Z Z Z Z Z Z Z Z Z Z Z m Z Z Z Z Z Z m Z Z Z m Z Z ",
"Z Z Z m Z Z m Z Z Z Z Z m Z Z Z Z Z Z Z Z m Z Z Z Z Z Z Z Z m Z Z Z Z Z m Z Z Z Z Z Z Z Z Z "
};
