/* XPM */
static char *slime[] = {
/* columns rows colors chars-per-pixel */
"64 39 107 2 ",
"   c #1F991E",
".  c #209C1C",
"X  c #1F9725",
"o  c #1F9923",
"O  c #1F992B",
"+  c #1E9435",
"@  c #1F9932",
"#  c #1F9A3E",
"$  c #209A22",
"%  c #20992C",
"&  c #209A34",
"*  c #1F9B45",
"=  c #1E974C",
"-  c #1E994B",
";  c #1E9751",
":  c #1E9851",
">  c #1E9759",
",  c #1F9D5C",
"<  c #209E4C",
"1  c #209C50",
"2  c #1EA05D",
"3  c #1E9E6E",
"4  c #1E9E73",
"5  c #209F69",
"6  c #1FA464",
"7  c #1FA46C",
"8  c #1FA474",
"9  c #1FA679",
"0  c #1FAC7B",
"q  c #21A471",
"w  c #20A378",
"e  c #20AC79",
"r  c #284FC1",
"t  c #2757C3",
"y  c #2856C3",
"u  c #265BC3",
"i  c #285AC4",
"p  c #2662C5",
"a  c #256EC3",
"s  c #2766C8",
"d  c #266BC9",
"f  c #286DCB",
"g  c #2474C3",
"h  c #2479C3",
"j  c #2673CC",
"k  c #267CD0",
"l  c #1EB083",
"z  c #1EB690",
"x  c #1FB39A",
"c  c #20A387",
"v  c #20AC84",
"b  c #20B28D",
"n  c #20AD93",
"m  c #21A99B",
"M  c #20B597",
"N  c #21B59A",
"B  c #21B99C",
"V  c #1FB3A7",
"C  c #1FBDA3",
"Z  c #20B4A1",
"A  c #20BBA2",
"S  c #22BDAB",
"D  c #1FC3B2",
"F  c #21C4AF",
"G  c #22C4B6",
"H  c #21C9B6",
"J  c #22C1BD",
"K  c #21CABD",
"L  c #2385C5",
"P  c #248AC5",
"I  c #249EC7",
"U  c #249ECB",
"Y  c #2686D5",
"T  c #258AD6",
"R  c #268ED9",
"E  c #2498D6",
"W  c #2595DB",
"Q  c #239EDD",
"!  c #23A4C8",
"~  c #23ACC9",
"^  c #23B4CB",
"/  c #23BECA",
"(  c #23A3D4",
")  c #22ADD7",
"_  c #23A2DD",
"`  c #22AAD9",
"'  c #22B3D5",
"]  c #22BCD3",
"[  c #23B4DA",
"{  c #23BED9",
"}  c #249BE0",
"|  c #24A3E0",
" . c #23C6C2",
".. c #22CBC2",
"X. c #22C5CC",
"o. c #22CBCC",
"O. c #22D3C5",
"+. c #21DAC6",
"@. c #22D4CB",
"#. c #22DACC",
"$. c #22C2D3",
"%. c #23CAD3",
"&. c #25C0D8",
"*. c #23D3D3",
"=. c #23DAD2",
"-. c #22E4CD",
";. c #23EACE",
/* pixels */
". . . . . . . . . . . . . . . . . . . . . .     . . . . . . . . . . . . . . . . . . . . . . . . . . . . . . . . . . . . . . . . ",
". . . . . . . . . . . . . . . . . . . . . .     . . . . . . . . . . .   . . . . . . . . . . . . . . . . . . . . . . . . . . . . ",
". . . . . . . . . . . . . . . . . .     . . . o     .   . . . . $ . .   o .   . . . . . . . . . . . . . . . . . . . . . . . . . ",
". . . . $ . . . . . . . . . . . . . .   . O 6 8 3 3 7 7 3 3 5 3 3 4 4 4 4 4 3 O . . . . . . . . . . . . . . . . . . . . . . . . ",
". . . . . . . . . . . . . . . . . . o O O 8 O.o.o.o.o.o.o.X.o.o.o.o.o.o.o.o.O.q X O + +   .     . . . . . . . . . . . . $ . . . ",
". . . . . . . . . . . . . . . . .   2 x x D +.$.[ ' [ [ [ [ [ [ [ [ [ [ ' $.#.G b n V m # . .   . . . . . . . . . . . . . . . . ",
". . . . . . . . . . . . . % 1 : - - C =.%.%.X.` Q Q Q Q Q Q Q Q Q Q Q Q W ` ] o.%.%.=.#.0 # = > - . . . . . . . . . . . . . . . ",
". . . . . . . . . . . . $ q  ...S D O.%.) ` _ Q Q Q Q Q Q Q Q Q Q Q Q Q Q Q ` ` _ ` ] @.K G D  .F < . . . . . . . . . . . . . . ",
". . . . . . . . . $ : 0 0 F #.%.] { ] ' Q } } } Q Q Q _ Q _ Q Q Q Q Q Q Q Q Q Q Q } _ ' ] $.{ *.#.z 7 9 # . . . . . . . . . . . ",
". . . . . . . . . - S #.o.o.$.` Q } Q Q _ ) ` _ Q Q Q Q Q Q Q Q Q Q Q Q Q _ Q Q Q Q Q Q Q Q Q ' o.o.*.@.n @ . . . . $ . . . . . ",
". . . . . . .   < S @.%.[ ) ` Q } } E ` X.o.$.) Q Q Q Q Q Q Q _ _ Q Q Q Q Q Q Q Q Q Q Q Q Q Q _ ) ) ] @.O.v & . . . . . . . . . ",
". . . . . .   - A #.o.' Q Q _ ) ' ' ' ] O.@.] ) Q Q _ Q Q Q Q Q Q Q Q Q Q Q Q _ Q Q Q Q Q Q Q Q Q } _ ] =.@.v + . . . . . . . . ",
". . . . . . @ F #.o.) Q Q Q ) o.@.@.O.@.O.] ` Q Q _ Q Q Q Q Q Q Q Q Q Q Q Q Q Q Q Q Q Q _ Q Q Q Q Q } _ ] @.@.v % . . . . . . . ",
". . . .     * K *.) _ } Q ) X.@.+.+.+.@.] _ Q Q _ Q Q Q Q Q Q Q Q Q Q Q Q Q Q Q Q Q Q Q Q Q Q Q Q Q Q Q _ ] =.B % . . . . . . . ",
". . . .   o 6 ..] Q Q _ ) o.+.o.X.o.X.] _ Q Q Q Q Q Q Q Q Q Q Q Q Q Q Q Q Q Q Q Q Q Q Q Q Q Q Q _ Q } Q } ` %.S * . . . . . . . ",
". . . . o 0 D @.' Q Q ) o.+.o.' _ ) ) ` Q Q Q Q Q Q Q Q Q Q Q Q Q Q Q Q Q Q Q Q Q Q Q Q Q Q Q Q Q Q Q Q } ( X.O.F < . . . . . . ",
". . . . O A =.%.` Q Q ` ] X.' _ Q Q } } Q Q _ Q Q Q Q Q Q Q Q Q _ Q Q Q Q Q Q Q Q Q Q Q Q Q Q Q Q Q Q Q Q _ ' *.@.9   . . . . . ",
". . . . o B %.` Q _ Q Q _ _ _ } Q Q Q Q Q Q } Q Q Q Q Q Q Q Q Q Q Q Q Q Q Q Q Q Q Q Q Q Q Q Q Q Q Q Q Q Q Q Q [ %.8   . . . . . ",
". . . . o z %.| } Q Q Q Q Q Q Q Q Q Q Q Q Q Q Q Q Q Q Q Q Q Q Q Q Q Q Q Q Q Q Q Q Q Q Q Q Q Q Q Q Q Q Q Q Q } ` o.6     . . . . ",
". . . . * S %.` } Q Q Q Q Q Q Q Q Q Q Q Q Q _ Q Q Q Q Q _ Q Q Q Q Q Q Q Q Q Q Q _ Q Q _ Q Q Q Q Q Q Q Q Q _ } [ o.l O   . . . . ",
". . . < F @.X.` Q Q Q Q Q Q Q Q Q Q Q Q _ Q Q Q Q _ Q Q _ } Q Q Q Q Q Q Q Q _ Q Q Q _ Q Q Q Q Q Q Q Q Q Q } } ) o.+.M # . . . . ",
". . . 7 #.%.) _ Q Q Q Q Q Q Q Q Q Q Q Q _ | _ _ _ | _ _ _ _ _ _ _ _ _ _ _ _ _ _ _ _ _ Q Q Q Q Q Q Q Q Q Q _ } ` ] *.K < . . . . ",
". . . 6 o.[ Q Q Q Q Q Q _ Q _ _ _ _ _ Q W W W W W W W W W Q W W W W W W W W W W W W Q Q _ Q Q _ _ Q _ Q Q _ Q Q Q &.D - . . . . ",
". . . 6 o.) Q Q _ Q Q _ _ _ Q _ | _ | W j d f f f f f f d d f d j f f f f f f f s d k Q | _ _ _ _ _ } _ _ Q Q Q _ { D * . . . . ",
". . . 6 o.[ Q Q Q Q _ W T Y T Y Y Y T k p t t u t t u t i i u u u u u u t u t u t t s Y Y Y Y Y Y Y R W _ Q Q Q Q { J =   . . . ",
". . . 6 o.[ Q Q _ _ Q Y s u p p p p p u u i i i i i i u i i i i y u i i i i t u i i i p p p p p p p f W _ Q _ Q _ &.D =     . . ",
". . . 6 @.o.' ( | Q Y s y y t t t t i i i u i i i i i i i i i i i i i i i i i i u i i i t t t t t y u j R } _ ` ] *.D ; . . . . ",
". . . 7 +.#.$.E R Y s i u i u u u i i i i u i i i i i i i i i i i i i i i i i i i i i i u u u t i u i i j R R ( o.-. .; . . . . ",
". . . 6 +.#.^ g s s u i i i i i i i i i i i i i i i i i i i i i i i i i i i i i i i i i i i i i i i i u u s s L o.-.K = . . . . ",
". . . % e K ~ p r i i i i i i i i i i i i i i i i i i i i u i i i i i i i i i i i i i i i i i i i i i i u t y g  .D 7 o . . . . ",
". . . . % B ^ g i y i i u i i i i i i i i i i i i i i i i i i i i i i i i i i i i i i i i i i i i u i y y i u P X.c o . . . . . ",
". . . . $ B =.~ h t y t u u i i i i i i i i i i i i i i i i i i i i i i i i i i i i i i i i i y u u i u t u P / @.w   . . . . . ",
". . . . . 6 H #.~ h h a i y i y y y t i y i y y y i y y y i y y y y y i y y y i i t y y y y i y i y u g g L / -.C * . . . . . . ",
". . . . . $ 2 K @.X.X.U p i u u u u u u u u u u u u u u u u u u u u u u u u u u u u u u u u u u u u g ^ o.o.@.x +   . . . . . . ",
". . . . . .   6 D -.-.o.! U ! U ! U U U ! E ! U ! E U U ! U I U ! I I U U U ! E I U U ! ! I U E I I ~ *.;.#.B * . . . . . . . . ",
". . . . . . .   8 J  .J  .S J J S  .J J J J J J J J J / S  .J K / J J J J J J J J J / J  ./ S  .S J / D K S *   . . . . . . . . ",
". . . . . . . . X * - - * - - * > = - - * - - * - * * * < - - - - - - - < = = = = = : : : = ; = > : - - = #   . . . . . . . . . ",
". . . . . . . .         . .   .         . . . .         . . . . . . . . . . . . . .   .   . . .     . .     . . . . . . . . . . ",
". . . . . . . . . .   . . . . . . . . . . . . . . . . . . . . . . . . . . . . . . . . . . . . .   . . . . . . . . . . . . . . . "
};
