/* XPM */
static char *wall[] = {
/* columns rows colors chars-per-pixel */
"36 64 194 2 ",
"   c #2E7F3F",
".  c #357D31",
"X  c #387C32",
"o  c #3D7436",
"O  c #466D3D",
"+  c #327F46",
"@  c #357A4F",
"#  c #387954",
"$  c #3A7458",
"%  c #377A53",
"&  c #3E7467",
"*  c #3F736B",
"=  c #3F7869",
"-  c #4F6543",
";  c #526246",
":  c #546248",
">  c #426D6D",
",  c #417666",
"<  c #41736B",
"1  c #407B6B",
"2  c #427E71",
"3  c #1F9B1B",
"4  c #22961F",
"5  c #209C1C",
"6  c #278F25",
"7  c #2D852A",
"8  c #268D2B",
"9  c #288A2D",
"0  c #30802D",
"q  c #249524",
"w  c #239A22",
"e  c #26942B",
"r  c #29962D",
"t  c #269A29",
"y  c #2B9D2E",
"u  c #2A8633",
"i  c #2A8C33",
"p  c #2D8439",
"a  c #30823C",
"s  c #2B9335",
"d  c #2C9934",
"f  c #2F9438",
"g  c #2D9B3B",
"h  c #32973F",
"j  c #29A028",
"k  c #2FA33D",
"l  c #30A332",
"z  c #31A834",
"x  c #33A23A",
"c  c #3BAD3E",
"v  c #2E8041",
"b  c #318444",
"n  c #308F43",
"m  c #32844B",
"M  c #338F49",
"N  c #398C49",
"B  c #319345",
"V  c #319A40",
"C  c #399F41",
"Z  c #34924B",
"A  c #3A934E",
"S  c #329B4A",
"D  c #368A52",
"F  c #398E54",
"G  c #3A8E5A",
"H  c #359151",
"J  c #369B51",
"K  c #3C9D53",
"L  c #3C925C",
"P  c #3E985F",
"I  c #3C9153",
"U  c #2DA041",
"Y  c #34A445",
"T  c #3AA743",
"R  c #3BAF40",
"E  c #34A44D",
"W  c #3BA24D",
"Q  c #33AC4C",
"!  c #3BAB48",
"~  c #39B343",
"^  c #36A353",
"/  c #3AA056",
"(  c #35AB52",
")  c #3BAB53",
"_  c #3AA45E",
"`  c #36AC58",
"'  c #3DAC5E",
"]  c #3FB951",
"[  c #3BB35D",
"{  c #39B559",
"}  c #3D8760",
"|  c #3F846D",
" . c #3D9264",
".. c #3A9961",
"X. c #3F946B",
"o. c #3E986A",
"O. c #38AF62",
"+. c #36B461",
"@. c #3DB264",
"#. c #37BE61",
"$. c #3CBB65",
"%. c #3DB36D",
"&. c #3CBD6B",
"*. c #3EAF73",
"=. c #3DB073",
"-. c #3EBB72",
";. c #48B74F",
":. c #47B94B",
">. c #4ABF4F",
",. c #42B346",
"<. c #40A358",
"1. c #41A55A",
"2. c #4AB056",
"3. c #4ABE50",
"4. c #4CBB5A",
"5. c #4CB15F",
"6. c #53BC5C",
"7. c #418F66",
"8. c #43846F",
"9. c #429567",
"0. c #42956D",
"q. c #428472",
"w. c #438C73",
"e. c #449475",
"r. c #439B76",
"t. c #459D79",
"y. c #489D7B",
"u. c #40A66E",
"i. c #40B06B",
"p. c #4ABA6C",
"a. c #4EBE62",
"s. c #50B86E",
"d. c #42A475",
"f. c #42AB74",
"g. c #44A07A",
"h. c #4FB376",
"j. c #41BA71",
"k. c #4EB875",
"l. c #41B478",
"z. c #41B274",
"x. c #50BB70",
"c. c #3BCF64",
"v. c #3DC46C",
"b. c #3BCA6B",
"n. c #3EC465",
"m. c #3ED267",
"M. c #3ED06C",
"N. c #3EC070",
"B. c #49C34A",
"V. c #4CC756",
"C. c #51C059",
"Z. c #55CB5D",
"A. c #4DD05A",
"S. c #59D55E",
"D. c #51DE5F",
"F. c #52D25B",
"G. c #41C26F",
"H. c #43C865",
"J. c #56CA67",
"K. c #58C864",
"L. c #58C668",
"P. c #53C166",
"I. c #46DC67",
"U. c #4DDF66",
"Y. c #4DDD6A",
"T. c #44D16A",
"R. c #5AD664",
"E. c #59D468",
"W. c #53DD6A",
"Q. c #5CDD6B",
"!. c #56D564",
"~. c #40C071",
"^. c #57CD71",
"/. c #4DDF70",
"(. c #5FD974",
"). c #60D96B",
"_. c #52E467",
"`. c #5CE163",
"'. c #5BEB65",
"]. c #50E26B",
"[. c #5DE26C",
"{. c #5EEF6B",
"}. c #5DF16A",
"|. c #60E366",
" X c #61E865",
".X c #63E66B",
"XX c #64ED6E",
"oX c #63F56D",
"OX c #69F56D",
"+X c #66FB6D",
"@X c #69FD6C",
"#X c #64EB71",
"$X c #66F970",
"%X c #68FA71",
/* pixels */
"5 5 5 5 5 5 5 5 5 5 5 5 5 5 5 5 5 5 5 5 5 5 5 5 5 5 5 5 5 5 5 5 5 5 5 5 ",
"5 5 5 5 5 5 5 5 5 5 5 5 5 5 5 5 5 5 5 5 5 5 5 5 5 5 5 5 5 5 5 5 5 5 5 5 ",
"5 5 5 5 5 5 5 5 5 5 5 5 5 5 5 5 5 5 5 5 5 5 5 5 5 5 5 5 5 5 5 5 5 5 5 5 ",
"5 5 5 5 5 5 5 5 5 5 5 5 5 5 5 5 5 5 5 5 5 5 5 5 5 5 5 5 5 5 5 5 5 5 5 5 ",
"5 5 5 5 5 5 5 5 5 5 5 5 5 5 5 5 5 5 5 5 5 5 5 5 5 5 5 5 5 5 5 5 5 5 5 5 ",
"5 5 5 5 5 5 5 5 5 5 5 5 5 5 5 5 5 5 5 5 5 5 5 5 5 5 5 5 5 5 5 5 5 5 5 5 ",
"5 5 5 5 5 5 5 5 5 5 5 5 5 5 5 5 5 5 5 5 5 5 5 5 5 5 5 5 5 5 5 5 5 5 5 5 ",
"5 5 5 5 5 5 5 5 5 5 5 5 5 5 5 5 5 5 5 5 5 5 5 5 5 5 5 5 5 5 5 5 5 5 5 5 ",
"5 5 5 5 5 5 5 5 5 3 5 5 5 5 5 5 5 5 5 5 5 5 5 5 5 5 5 5 5 5 5 5 5 5 5 5 ",
"5 5 5 5 5 5 5 5 5 5 5 5 5 5 5 5 5 q f 5 5 5 5 5 5 5 5 5 5 5 5 5 5 5 5 5 ",
"5 5 5 5 5 5 5 5 5 5 5 5 5 5 5 5 5 e A 5 5 5 5 5 5 5 5 5 5 5 5 5 5 5 5 5 ",
"5 5 5 5 5 5 5 5 5 5 5 5 5 5 5 5 5 d <.5 5 5 5 5 5 5 5 5 5 5 5 5 5 5 5 5 ",
"5 5 5 5 5 5 5 5 5 5 5 5 5 5 5 5 5 x 5.w 5 5 5 5 5 5 5 5 5 5 5 5 5 5 5 5 ",
"5 5 5 5 5 5 5 5 5 5 5 5 5 5 5 5 w W P.w 3 5 5 5 5 5 5 5 5 5 5 5 5 5 5 5 ",
"5 3 5 5 5 5 5 5 5 5 5 5 5 5 5 3 r s.J.w 5 5 5 5 5 5 5 5 5 5 5 5 5 5 5 5 ",
"5 5 5 5 5 5 5 5 5 5 5 5 5 5 5 3 d ^.(.k 3 5 5 5 5 5 5 5 5 5 5 5 5 5 5 5 ",
"5 5 5 5 5 5 5 5 5 5 5 5 5 5 5 5 Y .X#X1.5 5 5 5 5 5 5 5 5 5 5 5 5 5 5 5 ",
"5 5 5 5 5 5 5 5 5 5 5 5 5 5 5 t a.%X X2.r 5 5 5 5 5 5 5 5 5 5 5 5 5 5 5 ",
"5 5 5 5 5 5 5 5 5 5 5 5 5 5 5 y ).@XXXx 4 5 5 5 5 5 5 5 5 5 5 5 3 5 5 5 ",
"5 5 5 5 5 5 5 5 5 5 5 5 5 5 3 c XX@X$X4.w 5 5 5 5 5 5 5 5 5 5 5 5 5 5 5 ",
"5 5 5 5 5 5 5 5 5 5 5 5 3 w g E.@XoX+XQ.! 4 5 5 5 5 5 5 5 5 5 5 5 5 5 5 ",
"5 5 5 5 5 5 5 5 5 5 5 5 3 d p.#X@X'.oX`.T e 5 5 5 5 5 5 5 5 5 5 5 5 5 5 ",
"5 5 5 5 5 5 5 5 5 5 5 5 t ! [.{.@XD.`.OXB.j 5 5 5 5 5 5 5 5 5 5 5 5 5 5 ",
"5 5 5 5 5 5 5 5 5 5 5 w <.J.Z.XXoX`.Z.R.S.c 5 5 5 5 5 5 5 5 5 5 5 5 5 5 ",
"5 5 5 5 5 5 5 5 5 5 5 5 w j :.A._.].] ;.l w 3 5 5 5 5 5 5 5 5 5 5 5 5 5 ",
"5 5 5 5 5 5 5 5 5 5 5 5 5 t Y n.m.c.b.{ x q w 3 5 5 5 5 5 5 5 5 5 5 5 5 ",
"5 5 5 5 5 5 5 5 5 5 5 5 5 h $.b.c.m./.M.#.g w 3 5 3 5 5 5 5 5 5 5 5 5 5 ",
"5 5 5 5 5 5 5 5 5 5 5 5 t J ] T.c./.U.I.b.( 5 3 5 5 5 5 5 5 5 5 5 5 5 5 ",
"5 5 5 5 5 5 5 5 5 5 3 3 5 ! W.Y.U.oX}.}.U.H.Q w 5 5 5 5 5 5 5 5 5 5 5 5 ",
"5 5 5 5 5 5 5 5 5 5 3 3 z [.}.oXoX@X@X@X$XA.k t 5 5 5 5 5 5 5 5 5 5 5 5 ",
"5 5 5 5 5 5 5 5 5 5 5 z S.+X+XoX}.@X@X@X@XXX~ 3 3 5 5 5 5 5 5 5 5 5 5 5 ",
"5 5 5 5 5 5 5 5 5 5 z C.>.`.OXF.!.@XoXoX@X$XXX;.w 5 5 5 5 5 5 5 5 5 5 5 ",
"5 5 5 5 5 5 5 5 5 5 4 d 6.Z.C.V.Q.XXoX'.|.3.:.,.w 5 5 5 5 5 5 5 5 5 5 5 ",
"5 5 5 5 5 5 5 5 5 5 5 5 j f h K.!.#X[.E.6.c 5 5 5 5 5 5 5 5 5 5 5 5 5 5 ",
"5 5 5 5 5 5 5 5 5 5 5 5 s 0...P p.k.h.x.<.K h 5 5 5 5 5 5 5 5 5 5 5 5 5 ",
"5 5 5 5 5 5 5 5 5 5 3 f ..f.f.f.d.d.d.d.f.%.O.E w 5 5 5 5 5 5 5 5 5 5 5 ",
"5 5 5 5 5 5 5 5 5 5 w Z *.v.v.N.=.z.*.d.u.J V s w 5 5 5 5 5 5 5 5 5 5 5 ",
"5 5 5 5 5 5 5 5 5 5 w Z *.-.c.&.*.l.*.-.-.=.O.s 5 5 5 5 5 5 5 5 5 5 5 5 ",
"5 5 5 5 5 5 5 5 5 5 w _ -.b.c.N.-.%.%.v.#.+.j.O.t 5 5 5 5 5 5 5 5 5 5 5 ",
"5 5 5 5 5 5 5 5 5 d @.$.+.v.b.c.b.n.v.v.&.( H.T.Q w 5 5 5 5 5 5 5 5 5 5 ",
"5 5 5 5 5 5 5 5 q h Y Y $.&.v.v.#.[ v.N.N.( ( v.v.O.t 5 5 5 5 5 5 5 5 5 ",
"5 5 5 5 5 5 5 5 3 3 s ' ( ' ` %.^ ^ +.-.N.&.U k Q x w 5 5 5 5 5 5 5 5 5 ",
"5 5 5 5 5 5 5 5 3 3 e i K J L X.m H S +.$.v.v.E q 5 5 5 5 5 5 5 5 3 5 5 ",
"5 5 5 5 5 5 5 5 8 u   v m # , & & % u S ^ E ^ g 5 5 5 5 5 5 5 5 5 5 5 5 ",
"5 5 5 5 5 5 5 5 q + & , * * * 2 q.< $ @ b b D b 9 8 q 3 5 5 5 5 5 5 5 5 ",
"5 5 5 5 5 5 5 9 p m e.w.e.w.w.w.q.= < > > < e.w.G p 6 5 5 5 5 5 5 5 5 5 ",
"5 5 5 5 5 5 4 8 M e.t.r.g.e.e.e.q.e.w.8.8.q.e.g.e.m a q 5 5 5 5 5 5 5 5 ",
"5 5 5 5 5 5 w I L G t.t.t.t.r.y.e.t.t.t.t.y.t.g.t. .n q 5 5 5 5 5 5 5 5 ",
"5 5 5 5 5 5 5 w f 9.t.0.X.0.t.t.y.t.t.X.t.g.r.r.t.y.e.s 5 5 5 5 5 5 5 5 ",
"5 5 5 5 5 5 5 e I  .M G G X.t.t.r.t.t.w.t.g. . .G Z s 5 5 5 5 5 5 5 5 5 ",
"5 5 5 5 5 5 5 5 w w f M L X.g. .7.t.e.0. .t.X.F s 5 3 5 5 5 5 5 5 5 5 5 ",
"5 5 5 5 5 5 5 5 5 5 3 s M 9.r.D 7.D  .D  .G o.r.B 5 5 5 5 5 5 5 5 5 5 5 ",
"5 5 5 5 5 5 5 5 5 5 5 q A 9.n F n 8 i f h N e y w 5 5 5 5 5 5 5 5 5 5 5 ",
"5 5 5 5 5 5 5 5 5 5 5 5 r q q 9 7 X 7 q 5 5 5 5 5 5 5 5 5 5 5 5 5 5 5 5 ",
"5 5 5 5 5 5 5 5 5 5 5 5 5 5 7 O - : : 7 5 5 5 5 5 5 5 5 5 5 5 5 5 5 5 5 ",
"5 5 5 5 5 5 5 5 5 5 5 5 5 5 7 ; - o O . 5 5 5 5 5 5 5 5 5 5 5 5 5 5 5 5 ",
"5 5 5 5 5 5 5 5 5 5 5 5 5 5 q X 0 0 0 6 4 5 5 5 5 5 5 5 5 5 5 5 5 5 5 5 ",
"5 5 5 5 5 5 5 5 5 5 5 5 5 5 5 4 4 5 w 5 5 5 5 5 5 5 5 5 5 5 5 5 5 5 5 5 ",
"5 5 5 5 5 5 5 5 5 5 5 5 5 5 5 5 5 5 3 5 5 5 5 5 5 5 5 5 5 5 5 5 5 5 5 5 ",
"5 5 5 5 5 5 5 5 5 5 5 5 5 5 5 5 5 5 5 5 5 5 5 5 5 5 5 5 5 5 5 5 5 5 5 5 ",
"5 5 5 5 5 5 5 5 5 5 5 5 5 5 5 5 5 5 5 5 5 5 5 5 5 5 5 5 5 5 5 5 5 5 5 5 ",
"5 5 5 5 5 5 5 5 5 5 5 5 5 5 5 5 5 5 5 5 5 5 5 5 5 5 5 5 3 5 5 5 5 5 5 5 ",
"5 5 5 5 5 5 5 5 5 5 5 5 5 5 5 5 5 5 5 5 5 5 5 5 5 3 5 5 5 5 5 5 5 5 5 5 ",
"5 5 5 5 5 5 5 5 5 5 5 5 5 5 5 5 5 5 5 5 5 5 5 5 5 5 5 5 5 5 5 5 5 5 5 5 "
};
